# xmcd
#
# Track frame offsets:
#	150
#	15100
#	31640
#	44600
#	58832
#	69245
#	85572
#	101440
#	116370
#	130687
#	142000
#
# Disc length: 2136 seconds
#
# Revision: 0
# Processed by: cddbd v1.4PL0 Copyright (c) Steve Scherf et al.
# Submitted via: dBpowerAMP V4.0
#
DISCID=7f08560b
DTITLE=Steve Vaus - Don't Tread On Me
DYEAR=1996
DGENRE=Country
TTITLE0=I Am America
TTITLE1=Turn, Turn, Turn
TTITLE2=For What It's Worth
TTITLE3=Where Have All the Flowers Gone?
TTITLE4=The Strangest Dream
TTITLE5=Amazing Grace
TTITLE6=Home On The Range
TTITLE7=Faith of Our Fathers
TTITLE8=If I Had A Hammer
TTITLE9=Battle Of New Orleans
TTITLE10=Sacred Ground
EXTD=
EXTT0=
EXTT1=
EXTT2=
EXTT3=
EXTT4=
EXTT5=
EXTT6=
EXTT7=
EXTT8=
EXTT9=
EXTT10=
PLAYORDER=
